PathFileType	4	(X/Y/Z)	13_2_60_p0_0-353_filt_butterworth.trc
DataRate	CameraRate	NumFrames	NumMarkers	Units	OrigDataRate	OrigDataStartFrame	OrigNumFrames
59.0	59.0	5	27	m	59.0	0	353
Frame#	Time	RHip			RKnee			RAnkle			RBigToe			RSmallToe			RHeel			LHip			LKnee			LAnkle			LBigToe			LSmallToe			LHeel			Neck			Head			Nose			RShoulder			RElbow			RWrist			RThumb			RIndex			RPinky			LShoulder			LElbow			LWrist			LThumb			LIndex			LPinky			
		X1	Y1	Z1	X2	Y2	Z2	X3	Y3	Z3	X4	Y4	Z4	X5	Y5	Z5	X6	Y6	Z6	X7	Y7	Z7	X8	Y8	Z8	X9	Y9	Z9	X10	Y10	Z10	X11	Y11	Z11	X12	Y12	Z12	X13	Y13	Z13	X14	Y14	Z14	X15	Y15	Z15	X16	Y16	Z16	X17	Y17	Z17	X18	Y18	Z18	X19	Y19	Z19	X20	Y20	Z20	X21	Y21	Z21	X22	Y22	Z22	X23	Y23	Z23	X24	Y24	Z24	X25	Y25	Z25	X26	Y26	Z26	X27	Y27	Z27	
0	0.0	0.23720342034827677	0.8237404034443769	0.6579759412032167	0.24833578716142574	0.9933136648544127	1.036731588141779	0.25671650373620647	1.3323683988932602	1.3908425809575338	0.25905945771255473	1.0990603347715207	1.4527432861118041	0.30427660327119876	1.1540263797916404	1.4530601245884256	0.241679709512229	1.4065919766170916	1.4341890593489417	0.05843321827087412	0.8801927558189615	0.6508482516559416	0.062396223725857555	1.0654624379941287	1.0402944256634927	0.08316028152367817	1.272696821267115	1.3928714120497816	0.08743196226346656	1.113727290130158	1.4515052172303244	0.035028785509437124	1.1364151354405778	1.4339316536646731	0.11077610414110162	1.3564787797445201	1.4229147985683142	0.14915162873699242	0.6998666929336205	0.1178710201543737	0.13415259475257002	0.5268291527202575	-0.07224639357212465	0.1403222851344968	0.48996787902438277	0.0697772411939577	0.3072242870904869	0.6841867338059276	0.21265846958110302	0.3564507940503179	0.6994942197451475	0.4733879772789694	0.18665159229109793	0.5742363034582693	0.5362102305884147	0.09287853472517531	0.5553340759891373	0.5233830175875274	0.07880401295973932	0.5822574979487738	0.5541856664894839	0.09797059301768099	0.5844283079841179	0.5998203962860273	0.017196548297061232	0.7714159760318212	0.16510291365175533	-0.028752026322047552	0.876723752289861	0.41600826415266534	0.05309772275423313	0.6463933094724026	0.5474143512075534	0.08849754771894112	0.5717804811409913	0.5533372469675077	0.09897185999434188	0.5572774319200955	0.5682226693842817	0.09847124666619352	0.5851873286001475	0.624193898915194
1	0.0169491525423728	0.23754041005355506	0.8234725434481258	0.6571301251028996	0.24789189543312662	0.9947300915598165	1.0396047355053675	0.25458542314733945	1.322104530055836	1.389433399575889	0.2573401509846122	1.0900287322731643	1.450627861705636	0.3022953941930866	1.1451468309202297	1.4505161588069715	0.24078099170134237	1.4020472700407614	1.4332991835442481	0.05845075935048674	0.880256035117413	0.6512047173968303	0.0624907105614685	1.0654397327021663	1.0426398069726461	0.08315055926480058	1.2729678549504886	1.3929621763623634	0.08796623092933598	1.111999894955679	1.4511075688496855	0.03491158473918703	1.1375661374224197	1.434077552783029	0.11056530091839822	1.3590191740300475	1.426203611361957	0.14899580012068978	0.6994064581485162	0.11871232767884407	0.1367122662647008	0.5195921991034854	-0.07000389275778135	0.14038533973051298	0.48979659063760417	0.06888698095485407	0.3058124854511845	0.6793342272518318	0.21102448753558195	0.35829534092120663	0.6887055374080081	0.47223459493950437	0.1850571370721106	0.5734386479213562	0.5259932040767674	0.08889492212725424	0.5539502792124262	0.5035078000265413	0.07453501702645376	0.5786283695217455	0.5404604426535862	0.0936474495288028	0.590180775854483	0.5937486107118399	0.0174557609096287	0.7687764088607881	0.16571840800127619	-0.023304409192084735	0.886537491471302	0.4157664108259085	0.05207040367133184	0.6464017993470798	0.5477844719911663	0.08884969110016275	0.5516063531679791	0.5453058495855745	0.09611705968870812	0.5438770433391672	0.5643144713069198	0.09690818388129568	0.5832654513917486	0.6222709459993984
2	0.0338983050847457	0.23784868478298538	0.8230245768351391	0.6559423876943081	0.24752269539713773	0.9953723536663611	1.0408466435967945	0.25329242812204056	1.315952767739342	1.388596491763773	0.25647029554125456	1.084259941770774	1.4486205833517416	0.3019950786046877	1.140479281697691	1.449287980146938	0.24042937369666245	1.4001537765154553	1.4328196793558359	0.05842529307878838	0.8802792680059316	0.650775567646642	0.0628264284758317	1.0670748497605256	1.0441065927557411	0.08311424549470572	1.2730604294193328	1.39303109073165	0.08918714939377162	1.1077945428026361	1.4502275049153246	0.034896471653688976	1.1378039620208933	1.4341421851288128	0.11036358334226443	1.3605960248167048	1.4283381913642608	0.1490651059350234	0.699287510043681	0.11907829583346372	0.13825628729616837	0.5153184457916413	-0.06866673700975545	0.14005168565853207	0.48968934760056215	0.06883535855437271	0.3047711075914287	0.6757463044259966	0.20932695621771052	0.35902749759955765	0.6791925707793899	0.4705297179959088	0.1839944095657345	0.5717336801589242	0.514717079636319	0.08824572539706857	0.5461284497256785	0.48628009821668056	0.0717011480576208	0.5658265609510723	0.5247053469713177	0.09115732479334185	0.5917931618593827	0.5852793330365496	0.018335527176158	0.7635443558513577	0.16683384273797516	-0.01771963112177924	0.8962755866895022	0.41522667864757246	0.05121452883430089	0.6492237824029268	0.5471944473830821	0.08686598542243057	0.5385890937934827	0.5360283874511932	0.09189965937638803	0.5411900226977314	0.5600174020996789	0.0922433627187948	0.5892555162344616	0.6200537170668723
3	0.0508474576271186	0.2382205770349054	0.8229622026187269	0.654253954727231	0.24730697309531585	0.9951021843955644	1.0397963179714347	0.2528757892841242	1.3140594041714158	1.3883467813548969	0.2564651910167198	1.0820934382429188	1.4469450206057384	0.3032402851334315	1.139982475396846	1.4495578177107262	0.2408421030414019	1.4018780100106305	1.4330209847869435	0.05830358390467158	0.8801982880784894	0.6487892691312029	0.06360382773995149	1.0712330255776605	1.0447007578587897	0.08303817879310349	1.272973280055209	1.3930975263941816	0.09087825448710651	1.1018332543941816	1.449006982548969	0.0353322114482173	1.136052458973462	1.434143769649417	0.1101163982538701	1.3611878880074542	1.4291694514330753	0.14983627432185095	0.7004867599990432	0.11881196491343705	0.13870784728853816	0.5141993574975156	-0.06827800336289556	0.13906771622512415	0.48948325901982	0.06941443996940866	0.30399339498327044	0.673095380278132	0.20824618265262992	0.35825284260110707	0.6711941302146858	0.46741928972478536	0.18366279571986008	0.5653784601745947	0.5024598771275373	0.0900469439344208	0.5292203959959326	0.4720348426081272	0.06976118708199444	0.539421738478189	0.5071543765417769	0.09007119688916695	0.578584416072894	0.573130873060746	0.01999274799159996	0.7567254599454895	0.16809882609390894	-0.01241003968991658	0.904187352185625	0.4140118756297924	0.05059474489819282	0.6553082140602026	0.545505032815957	0.08210365397306711	0.5379528574458164	0.5282231743129124	0.08685490872607217	0.5525201121166714	0.5565169723028898	0.08465199006671544	0.6043221438313275	0.6179523877450603
4	0.0677966101694915	0.23886473330107624	0.8245884875654532	0.652683401653067	0.2473889105334642	0.994642771750614	1.0371433197494662	0.25286355566470886	1.3140952318046655	1.3883654309504814	0.2567717248988803	1.081911256948579	1.4459312659080097	0.30462271301433574	1.1409074833989217	1.450370312328846	0.24164196505160682	1.4053952580994926	1.4339597492792013	0.05807659229797943	0.8800232145777396	0.6453938896449943	0.06470511498995324	1.0765187519389172	1.044896276639476	0.08294308970606712	1.272857361054601	1.3931807008012058	0.09220426830943736	1.0970851431331714	1.4480211675619907	0.03653287820928784	1.1317158226811252	1.4341849124140464	0.10978642460140027	1.3614550288486338	1.4290493805878657	0.1516045795063651	0.7039102691388586	0.11829997501581185	0.13861374944885138	0.5145141734547578	-0.0683451766244835	0.13772113113316908	0.48910589761181644	0.06997798726993583	0.30340696466643	0.6711645524417836	0.20803386238237492	0.3559860087101505	0.6639261059057244	0.46254859286803174	0.18310150149359555	0.5509921658846865	0.48961938610720707	0.09062208077261275	0.504530312384365	0.4580434908499318	0.06639736615948907	0.5036511210562741	0.488542201126601	0.08789758380223842	0.544150767893343	0.5561124263036897	0.022138554109499258	0.7509533259593346	0.168962551846612	-0.008456135936543815	0.9084564220108693	0.41166717480904275	0.04980846153446009	0.662228371665797	0.5439927409593167	0.07741313746587761	0.5473277556004552	0.5278634051389774	0.08301150255595721	0.5685707101339559	0.5578536201463352	0.07748207613210079	0.6214644446667973	0.6165832926051701
